<?xml version="1.0" encoding="UTF-8"?>
<!-- Generator: visioncortex VTracer 0.6.3 -->
<svg version="1.1" xmlns="http://www.w3.org/2000/svg" width="512" height="512">
<path d="M0 0 C0.73 -0 1.46 -0 2.21 -0.01 C4.66 -0.01 7.12 -0.01 9.57 -0.01 C11.35 -0.02 13.12 -0.02 14.89 -0.02 C19.77 -0.03 24.65 -0.04 29.54 -0.04 C34.8 -0.04 40.06 -0.05 45.32 -0.06 C58.03 -0.08 70.74 -0.09 83.46 -0.1 C89.44 -0.11 95.43 -0.11 101.41 -0.12 C121.31 -0.13 141.21 -0.15 161.1 -0.16 C166.27 -0.16 171.43 -0.16 176.6 -0.16 C177.88 -0.16 179.16 -0.16 180.49 -0.16 C201.28 -0.17 222.07 -0.2 242.86 -0.23 C264.2 -0.26 285.55 -0.28 306.89 -0.28 C318.88 -0.28 330.86 -0.29 342.84 -0.32 C353.05 -0.34 363.26 -0.35 373.47 -0.34 C378.67 -0.33 383.88 -0.34 389.08 -0.36 C393.86 -0.37 398.63 -0.37 403.4 -0.36 C405.12 -0.35 406.84 -0.36 408.56 -0.37 C422.44 -0.46 433.54 1.55 444.81 10.13 C445.84 10.88 446.87 11.62 447.94 12.38 C456.69 20.75 463.71 33.14 464.05 45.48 C464.37 60.23 462.48 72.3 452.81 84.13 C449.88 86.06 448.88 86.14 445.25 86.01 C441.81 85.13 441.81 85.13 439.87 83.51 C438.3 80 438.24 77.97 438.81 74.13 C440.16 71.76 441.65 69.62 443.3 67.44 C448.08 60.13 447.47 51.5 446.81 43.13 C445.96 39.45 444.69 36.41 442.81 33.13 C442.4 32.42 441.99 31.7 441.56 30.96 C436.84 23.83 429.11 19.06 420.81 17.13 C419.14 17.11 417.48 17.11 415.81 17.13 C415.43 17.82 415.05 18.51 414.66 19.22 C402.44 41.23 390.16 63.2 377.81 85.13 C378.97 85.14 380.13 85.14 381.33 85.15 C385.64 85.17 389.94 85.22 394.25 85.29 C396.12 85.31 397.98 85.32 399.85 85.33 C402.53 85.34 405.21 85.38 407.89 85.43 C408.72 85.42 409.55 85.42 410.41 85.42 C414.54 85.52 416.21 85.59 419.37 88.45 C421.34 92.12 420.91 94.18 419.81 98.13 C417.84 100.95 416.11 101.51 412.81 102.13 C410.53 102.23 408.25 102.26 405.97 102.26 C405.28 102.26 404.59 102.27 403.88 102.27 C401.55 102.27 399.23 102.27 396.9 102.27 C395.22 102.27 393.54 102.27 391.86 102.27 C387.24 102.28 382.61 102.28 377.99 102.28 C373 102.28 368.02 102.28 363.03 102.29 C353.26 102.3 343.49 102.3 333.71 102.3 C325.77 102.3 317.82 102.3 309.87 102.31 C287.34 102.32 264.81 102.32 242.27 102.32 C241.06 102.32 239.84 102.32 238.59 102.32 C237.37 102.32 236.15 102.32 234.9 102.32 C215.2 102.32 195.5 102.33 175.79 102.34 C155.56 102.36 135.33 102.36 115.09 102.36 C103.74 102.36 92.38 102.37 81.02 102.38 C71.34 102.39 61.67 102.39 51.99 102.38 C47.06 102.38 42.12 102.38 37.19 102.39 C32.67 102.39 28.14 102.39 23.62 102.38 C21.99 102.38 20.36 102.38 18.73 102.39 C-0.1 102.45 -17.48 101.32 -32.19 88.13 C-32.83 87.57 -33.47 87 -34.12 86.41 C-43.68 77.39 -48.24 66.51 -48.66 53.4 C-48.79 40.09 -46.42 29.83 -38.19 19.13 C-37.51 18.21 -37.51 18.21 -36.82 17.27 C-30.2 8.83 -21.33 4.15 -11.19 1.13 C-10.35 0.87 -10.35 0.87 -9.49 0.6 C-6.3 -0.04 -3.25 0 0 0 Z M-24.19 27.13 C-31.45 36.95 -33.19 46.04 -32.19 58.13 C-30.12 66.93 -25.16 74.32 -17.75 79.45 C-9.55 84.58 -9.55 84.58 -0.19 85.13 C2.01 82.7 3.43 79.9 4.94 77.01 C5.77 75.48 6.61 73.96 7.44 72.44 C7.84 71.71 8.24 70.97 8.65 70.22 C12.68 63 12.68 63 15.69 60.7 C18.7 59.9 20.83 60.29 23.81 61.13 C26.33 64.91 26.26 66.64 25.81 71.13 C24.74 73.77 23.32 76.11 21.81 78.51 C19.15 82.16 19.15 82.16 17.81 86.13 C25.27 86.34 32.72 86.48 40.18 86.57 C42.72 86.61 45.25 86.67 47.79 86.74 C51.44 86.83 55.08 86.88 58.73 86.92 C60.43 86.98 60.43 86.98 62.16 87.04 C67.85 87.2 67.85 87.2 72.56 84.49 C73.87 82.42 74.86 80.39 75.81 78.13 C76.35 77.2 76.9 76.26 77.46 75.3 C77.93 74.44 78.41 73.58 78.9 72.69 C79.73 71.22 79.73 71.22 80.57 69.71 C81.14 68.67 81.72 67.64 82.31 66.57 C83.55 64.35 84.79 62.12 86.03 59.9 C86.97 58.21 86.97 58.21 87.93 56.5 C90.86 51.26 93.8 46.04 96.75 40.82 C97.29 39.87 97.82 38.92 98.38 37.93 C101.76 31.96 105.19 26.02 108.74 20.15 C109.97 18.22 109.97 18.22 109.81 16.13 C92.32 16.13 74.83 16.13 56.81 16.13 C53.84 21.41 50.87 26.69 47.81 32.13 C42.69 34.18 40.99 34.15 35.81 33.13 C34.7 27.12 34.51 23.55 37.81 18.13 C37.81 17.47 37.81 16.81 37.81 16.13 C31.87 16.03 25.93 15.96 19.99 15.91 C17.97 15.89 15.95 15.87 13.94 15.83 C11.02 15.78 8.11 15.76 5.19 15.74 C3.86 15.71 3.86 15.71 2.5 15.68 C-7.87 15.68 -16.89 19.78 -24.19 27.13 Z M128.81 16.13 C119.28 32.79 119.28 32.79 109.87 49.51 C106.28 55.95 102.67 62.38 99.03 68.8 C98.43 69.86 97.82 70.93 97.2 72.02 C96.04 74.06 94.88 76.1 93.72 78.14 C93.21 79.05 92.69 79.95 92.16 80.88 C91.71 81.68 91.25 82.48 90.78 83.31 C89.73 84.94 89.73 84.94 89.81 86.13 C97.17 86.57 104.53 86.86 111.9 87.07 C114.41 87.15 116.91 87.27 119.41 87.42 C132.71 88.75 132.71 88.75 144.85 84.62 C148.25 80.69 150.16 76.18 151.96 71.34 C153.19 68.16 154.84 65.39 156.58 62.45 C157.74 60.34 158.9 58.24 160.06 56.13 C161.34 53.82 162.61 51.51 163.89 49.2 C164.21 48.63 164.53 48.05 164.86 47.45 C167.19 43.25 169.53 39.06 171.88 34.88 C172.21 34.29 172.54 33.71 172.88 33.11 C174.45 30.32 176.02 27.53 177.59 24.74 C178.15 23.75 178.7 22.77 179.28 21.75 C179.77 20.88 180.26 20.01 180.76 19.11 C181.89 17.36 181.89 17.36 181.81 16.13 C164.32 16.13 146.83 16.13 128.81 16.13 Z M195.6 21.82 C194.61 24.23 193.68 26.67 192.81 29.13 C191.57 31.42 190.3 33.69 188.99 35.94 C187.7 38.29 186.41 40.65 185.12 43.01 C183.73 45.55 182.34 48.09 180.95 50.63 C180.6 51.26 180.26 51.89 179.9 52.54 C175.94 59.73 171.88 66.87 167.8 73.99 C167.3 74.86 166.8 75.73 166.29 76.63 C165.85 77.39 165.42 78.14 164.98 78.92 C163.75 81.24 162.79 83.69 161.81 86.13 C179.3 86.13 196.79 86.13 214.81 86.13 C216.85 82.48 218.89 78.83 221 75.07 C225.8 66.5 230.6 57.94 235.44 49.38 C235.96 48.46 236.48 47.53 237.02 46.57 C239.77 41.73 242.52 36.89 245.29 32.06 C245.85 31.09 246.41 30.11 246.99 29.11 C248.06 27.24 249.13 25.38 250.21 23.52 C250.92 22.28 250.92 22.28 251.64 21.02 C252.06 20.29 252.48 19.56 252.91 18.81 C253.89 17.3 253.89 17.3 253.81 16.13 C246.41 15.8 239.01 15.58 231.61 15.42 C229.09 15.35 226.57 15.27 224.06 15.15 C207.81 13.46 207.81 13.46 195.6 21.82 Z M271.81 16.13 C267.85 23.39 263.89 30.65 259.81 38.13 C257.68 41.95 255.54 45.77 253.37 49.57 C252.85 50.49 252.33 51.42 251.79 52.37 C248.9 57.46 246 62.55 243.1 67.63 C242.2 69.21 242.2 69.21 241.27 70.83 C240.11 72.87 238.94 74.91 237.77 76.95 C237.25 77.86 236.73 78.78 236.2 79.72 C235.74 80.52 235.27 81.33 234.8 82.16 C233.66 84.06 233.66 84.06 233.81 86.13 C251.3 86.13 268.79 86.13 286.81 86.13 C289.18 81.82 291.55 77.51 294 73.07 C299.2 63.63 304.43 54.2 309.75 44.82 C310.27 43.9 310.8 42.97 311.34 42.01 C313.75 37.75 316.18 33.49 318.61 29.23 C319.04 28.48 319.47 27.73 319.91 26.96 C320.69 25.58 321.48 24.2 322.27 22.83 C324.19 19.68 324.19 19.68 324.81 16.13 C307.32 16.13 289.83 16.13 271.81 16.13 Z M343.81 16.13 C341.77 19.78 339.73 23.44 337.62 27.2 C332.82 35.77 328.02 44.33 323.19 52.88 C322.4 54.28 322.4 54.28 321.6 55.7 C318.86 60.54 316.1 65.38 313.33 70.2 C312.77 71.18 312.21 72.15 311.63 73.16 C310.56 75.02 309.49 76.89 308.42 78.75 C307.7 79.99 307.7 79.99 306.98 81.25 C306.56 81.98 306.14 82.71 305.71 83.46 C304.73 84.96 304.73 84.96 304.81 86.13 C312.21 86.46 319.61 86.69 327.01 86.85 C329.53 86.91 332.05 87 334.56 87.11 C347.51 88.31 347.51 88.31 359.65 85.02 C362.97 81.69 364.29 77.48 365.81 73.13 C366.96 71.01 368.15 68.91 369.38 66.84 C370.57 64.69 371.75 62.54 372.94 60.38 C374.23 58.03 375.53 55.68 376.83 53.33 C377.16 52.74 377.48 52.15 377.82 51.53 C380.13 47.35 382.47 43.17 384.82 39 C385.46 37.87 386.1 36.73 386.76 35.57 C387.98 33.41 389.2 31.25 390.42 29.09 C390.97 28.12 391.51 27.15 392.08 26.14 C392.8 24.87 392.8 24.87 393.54 23.57 C395.06 20.76 395.06 20.76 396.81 16.13 C379.32 16.13 361.83 16.13 343.81 16.13 Z " fill="#000000" transform="translate(48.18975830078125,357.86577892303467)"/>
<path d="M0 0 C3.93 3.14 4.76 5.87 5.7 10.73 C5.83 11.37 5.96 12.01 6.09 12.67 C6.49 14.69 6.87 16.72 7.25 18.75 C7.52 20.13 7.79 21.51 8.06 22.89 C8.72 26.26 9.37 29.63 10 33 C10.23 32.27 10.45 31.55 10.69 30.8 C11.72 27.49 12.77 24.18 13.81 20.88 C14.17 19.73 14.53 18.59 14.89 17.41 C15.24 16.31 15.6 15.2 15.96 14.05 C16.28 13.04 16.6 12.02 16.93 10.98 C18.41 6.86 19.88 3.12 23 0 C30.15 -0.69 30.15 -0.69 32.98 1.61 C35.45 4.54 36.26 7.06 37.36 10.73 C37.55 11.37 37.75 12.01 37.95 12.67 C38.56 14.69 39.16 16.72 39.75 18.75 C40.16 20.13 40.58 21.51 41 22.89 C42.01 26.25 43.01 29.63 44 33 C44.17 32.17 44.34 31.35 44.52 30.49 C45.16 27.41 45.8 24.33 46.45 21.26 C46.73 19.93 47.01 18.6 47.29 17.26 C47.68 15.35 48.09 13.43 48.49 11.52 C48.73 10.36 48.97 9.21 49.22 8.02 C49.9 5.39 50.57 3.3 52 1 C55.1 -0.55 57.58 -0.29 61 0 C63.94 1.5 63.94 1.5 66 4 C66.57 11.07 65.11 17.73 63.73 24.64 C63.5 25.83 63.27 27.03 63.02 28.27 C62.53 30.79 62.03 33.31 61.52 35.83 C60.75 39.68 60.01 43.54 59.26 47.4 C58.77 49.85 58.29 52.31 57.8 54.76 C57.58 55.91 57.36 57.07 57.13 58.25 C55.09 68.23 55.09 68.23 51 72 C47.86 73.57 45.46 73.35 42 73 C37.67 69.51 35.87 65.94 34.32 60.73 C34.11 60.05 33.89 59.37 33.67 58.67 C33 56.51 32.34 54.35 31.69 52.19 C31.23 50.72 30.77 49.25 30.31 47.78 C29.19 44.19 28.09 40.6 27 37 C26.75 37.88 26.5 38.77 26.24 39.67 C25.29 42.97 24.34 46.26 23.37 49.54 C22.96 50.96 22.55 52.38 22.15 53.81 C21.56 55.86 20.96 57.9 20.36 59.95 C20 61.18 19.65 62.41 19.28 63.68 C17.74 67.68 15.94 71.03 12 73 C8.32 73.35 5.8 73.39 2.45 71.75 C-1.45 67.38 -1.88 62.34 -2.94 56.69 C-3.18 55.47 -3.42 54.24 -3.67 52.98 C-4.19 50.36 -4.7 47.74 -5.2 45.12 C-5.87 41.62 -6.59 38.12 -7.31 34.63 C-7.89 31.83 -8.46 29.03 -9.02 26.23 C-9.3 24.88 -9.57 23.53 -9.85 22.18 C-10.25 20.28 -10.62 18.38 -11 16.48 C-11.21 15.4 -11.43 14.31 -11.66 13.2 C-12.11 8.97 -12.01 4.85 -9.94 1.06 C-6.81 -0.65 -3.41 -0.83 0 0 Z " fill="#000000" transform="translate(126,53)"/>
<path d="M0 0 C1.81 1.83 1.81 1.83 3.44 4.25 C4.1 5.21 4.76 6.18 5.44 7.17 C5.83 7.75 6.21 8.33 6.61 8.92 C8.31 11.47 10.05 13.99 11.78 16.52 C16.21 22.99 20.65 29.47 25 36 C25.01 35.02 25.03 34.04 25.04 33.03 C25.1 29.4 25.18 25.76 25.26 22.12 C25.3 20.55 25.32 18.97 25.35 17.4 C25.38 15.14 25.43 12.87 25.49 10.61 C25.49 9.91 25.5 9.21 25.51 8.48 C25.63 4.42 26.02 1.87 29 -1 C32.8 -2.27 34.55 -2.17 38.31 -0.75 C41 1 41 1 42 4 C42.11 5.98 42.17 7.97 42.19 9.95 C42.21 11.18 42.22 12.4 42.24 13.66 C42.25 15 42.26 16.34 42.27 17.68 C42.28 18.35 42.28 19.03 42.29 19.73 C42.32 23.3 42.34 26.87 42.35 30.44 C42.36 33.39 42.39 36.35 42.43 39.3 C42.48 42.87 42.51 46.44 42.51 50.01 C42.52 51.37 42.54 52.72 42.56 54.08 C42.76 66.04 42.76 66.04 39.69 69.33 C36.11 71.56 34.14 71.74 30 71 C25.68 67.25 22.54 62.8 19.31 58.12 C18.8 57.39 18.28 56.65 17.75 55.89 C12.72 48.67 7.85 41.35 3 34 C2.99 35.01 2.97 36.03 2.96 37.07 C2.9 40.84 2.82 44.6 2.74 48.36 C2.7 49.99 2.68 51.62 2.65 53.25 C2.62 55.59 2.57 57.93 2.51 60.27 C2.5 61.36 2.5 61.36 2.49 62.48 C2.35 67.52 2.35 67.52 0.6 69.95 C-1.5 71.32 -2.94 71.47 -5.44 71.5 C-6.2 71.53 -6.96 71.56 -7.75 71.59 C-11.12 70.7 -12.1 68.86 -14 66 C-14.51 63.08 -14.51 63.08 -14.52 59.82 C-14.53 58.6 -14.54 57.37 -14.56 56.11 C-14.55 54.79 -14.54 53.48 -14.53 52.12 C-14.53 50.75 -14.54 49.38 -14.54 48.01 C-14.55 45.14 -14.54 42.28 -14.52 39.41 C-14.5 35.74 -14.51 32.07 -14.54 28.4 C-14.55 25.57 -14.55 22.74 -14.54 19.91 C-14.53 17.91 -14.54 15.9 -14.56 13.89 C-14.54 12.67 -14.53 11.44 -14.52 10.18 C-14.51 9.1 -14.51 8.03 -14.51 6.92 C-13.88 3.3 -12.52 1.62 -10 -1 C-6.37 -2.82 -3.6 -1.48 0 0 Z " fill="#000000" transform="translate(258,148)"/>
<path d="M0 0 C8.37 6 13.75 14.1 15.93 24.2 C17.6 34.99 14.8 44.93 8.9 54.03 C3.66 61.08 -3.28 65.03 -11.75 67.25 C-22.63 68.72 -33.37 67.84 -42.46 61.3 C-50.99 54.14 -56.03 45.91 -57.09 34.67 C-57.22 21.97 -55.07 13.64 -46.11 4.41 C-33.14 -7.48 -15.01 -9.39 0 0 Z M-34.5 15.44 C-39.14 21.24 -41.48 26.24 -41.13 33.79 C-40.26 39.38 -37.91 43.06 -34 47.06 C-28.13 51.01 -23.12 53.05 -15.98 51.88 C-10.35 50.29 -6.19 47.34 -2.81 42.56 C0.21 37.09 1.03 31.71 -0.35 25.6 C-2.43 19.6 -5.35 15.62 -10.75 12.25 C-19.09 8.43 -27.46 9.84 -34.5 15.44 Z " fill="#000000" transform="translate(173.75,245.75)"/>
<path d="M0 0 C7.41 4.96 12.77 12.24 15.38 20.81 C17.59 32.28 15.83 42.14 10.19 52.25 C3.72 60.37 -3.5 66.01 -14 68 C-25.95 68.91 -35.65 66.68 -45 59 C-52.2 52.25 -56.28 44.41 -57.24 34.56 C-57.53 24.53 -55.27 14.52 -48.69 6.71 C-35.56 -6.57 -16.28 -9.7 0 0 Z M-36 17 C-40.35 23.79 -42.2 29.03 -40.59 37.03 C-38.85 43.01 -35.04 46.53 -30 50 C-24.4 52.63 -18.9 52.77 -13 51 C-7.24 48.65 -3.65 43.8 -0.56 38.56 C0.94 31.73 0.35 26.22 -3 20 C-6.74 14.26 -11.38 11.63 -17.88 10.06 C-24.55 9.52 -31.47 12.1 -36 17 Z " fill="#000000" transform="translate(258,58)"/>
<path d="M0 0 C2.31 2.75 2.75 3.43 3 6.81 C2.31 10.75 2.31 10.75 0.31 13.31 C-3.6 15.19 -6.63 14.91 -10.69 13.75 C-11.68 13.23 -12.67 12.72 -13.69 12.19 C-18.32 9.97 -22.21 10.02 -27.02 11.44 C-33.37 13.96 -36.56 17.09 -40 23 C-41.67 29.66 -41.49 35.98 -38 42 C-33.95 47.39 -28.75 49.61 -22.18 50.66 C-18.18 50.8 -15.08 49.87 -11.69 47.75 C-9.07 45.07 -7.87 43.29 -6.69 39.75 C-7.93 39.6 -7.93 39.6 -9.21 39.45 C-10.29 39.3 -11.38 39.15 -12.5 39 C-13.58 38.86 -14.66 38.72 -15.77 38.58 C-18.69 37.75 -18.69 37.75 -20.54 35.86 C-22.16 32.88 -22.23 31.09 -21.69 27.75 C-19.91 25.09 -19.91 25.09 -16.69 22.75 C-12.65 22.03 -8.71 22.1 -4.62 22.19 C-3.54 22.18 -2.45 22.17 -1.33 22.15 C6.67 22.23 6.67 22.23 9.62 24.62 C12.87 28.72 11.81 33.79 11.31 38.75 C9.64 48.3 4.78 56.52 -2.85 62.54 C-10.5 67.6 -19.96 68.6 -28.88 67.06 C-39.26 64.57 -47.33 58.87 -53.06 49.81 C-58.07 40.75 -59.34 30.95 -57 20.75 C-53.74 10.98 -47.6 2.48 -38.42 -2.47 C-25.79 -8.31 -11.69 -8.07 0 0 Z " fill="#000000" transform="translate(259.6875,246.25)"/>
<path d="M0 0 C1 -0.03 2.01 -0.06 3.04 -0.09 C11.08 -0.16 18.01 1.16 24.44 6.24 C30.12 13.32 31.91 19.23 31 28.31 C29.34 33.76 26.43 38.66 22 42.31 C18.8 43.51 18.8 43.51 16 44.31 C17.37 46 18.75 47.69 20.12 49.38 C20.94 50.38 21.76 51.39 22.6 52.43 C24.52 54.73 26.49 56.89 28.56 59.06 C30.78 61.64 31.02 62.41 31.62 66 C30.9 69.85 30.18 71.07 27 73.31 C23.96 74.48 22.64 74.58 19.62 73.31 C12.29 67.72 6.72 60.49 1 53.31 C0.96 54.42 0.93 55.53 0.89 56.67 C0.82 58.14 0.75 59.6 0.69 61.06 C0.66 61.79 0.64 62.52 0.62 63.27 C0.41 67.49 0.14 70.35 -3 73.31 C-6.6 74.49 -8.28 74.64 -11.75 73.06 C-14 71.31 -14 71.31 -16 68.31 C-16.26 65.63 -16.26 65.63 -16.27 62.36 C-16.28 61.13 -16.29 59.91 -16.3 58.65 C-16.3 57.31 -16.3 55.97 -16.3 54.63 C-16.3 53.26 -16.31 51.89 -16.31 50.51 C-16.32 47.63 -16.32 44.75 -16.32 41.87 C-16.31 38.19 -16.33 34.5 -16.35 30.82 C-16.36 27.98 -16.37 25.14 -16.36 22.31 C-16.36 20.95 -16.37 19.59 -16.38 18.23 C-16.39 16.33 -16.38 14.43 -16.37 12.52 C-16.37 11.44 -16.37 10.36 -16.37 9.25 C-15.95 5.9 -14.99 4.01 -13 1.31 C-9.1 -0.64 -4.29 0.04 0 0 Z M0 16.31 C0 20.93 0 25.55 0 30.31 C7.02 30.96 7.02 30.96 13.19 28.19 C15.27 25.44 15.27 25.44 15.06 22.19 C13.83 18.87 13.01 18.08 10 16.31 C7.41 15.95 7.41 15.95 4.75 16.12 C2.4 16.22 2.4 16.22 0 16.31 Z " fill="#000000" transform="translate(299,239.6875)"/>
<path d="M0 0 C0.99 0 1.97 0.01 2.99 0.01 C4.01 0.04 5.02 0.06 6.07 0.09 C7.59 0.09 7.59 0.09 9.13 0.09 C18.23 0.2 25.11 1.94 31.76 8.59 C36.04 14.67 37.5 20.19 36.76 27.59 C35.14 34.4 31.85 39.44 26.07 43.47 C23.76 44.59 23.76 44.59 21.76 44.59 C22.26 45.21 22.75 45.83 23.27 46.46 C24.69 48.24 26.1 50.01 27.51 51.8 C28.93 53.57 30.39 55.31 31.89 57.02 C36.73 62.68 36.73 62.68 36.89 67.47 C35.23 72.06 35.23 72.06 32.76 73.59 C29.95 74.53 29.95 74.53 26.76 74.59 C21.59 71.74 18.23 68 14.51 63.47 C13.47 62.22 12.42 60.96 11.37 59.71 C10.92 59.16 10.46 58.61 10 58.04 C8.68 56.46 8.68 56.46 6.76 54.59 C6.71 55.56 6.66 56.52 6.61 57.52 C6.54 58.78 6.46 60.04 6.39 61.34 C6.32 62.6 6.25 63.85 6.18 65.14 C5.81 68.23 5.55 70.08 3.76 72.59 C-0.38 74.42 -2.32 74.93 -6.61 73.34 C-9.24 71.59 -9.24 71.59 -10.24 69.59 C-10.36 67.59 -10.41 65.58 -10.43 63.57 C-10.45 62.31 -10.46 61.04 -10.48 59.74 C-10.49 58.35 -10.5 56.96 -10.51 55.57 C-10.52 54.88 -10.52 54.18 -10.53 53.46 C-10.55 49.76 -10.57 46.07 -10.59 42.37 C-10.6 39.32 -10.63 36.26 -10.67 33.2 C-10.72 29.51 -10.74 25.82 -10.75 22.13 C-10.76 20.72 -10.77 19.32 -10.8 17.91 C-10.83 15.94 -10.83 13.97 -10.82 12 C-10.83 10.88 -10.84 9.77 -10.85 8.61 C-9.67 2.77 -5.79 -0.05 0 0 Z M5.76 16.59 C5.76 21.21 5.76 25.83 5.76 30.59 C13.35 31.14 13.35 31.14 19.76 27.59 C20.93 25.25 20.93 25.25 20.76 22.59 C19.62 19.81 19.62 19.81 17.76 17.59 C14.88 16.63 13.06 16.49 10.07 16.53 C8.65 16.55 7.23 16.57 5.76 16.59 Z " fill="#000000" transform="translate(70.23828125,239.40625)"/>
<path d="M0 0 C5.44 4.45 9.29 9.11 10.09 16.3 C10.17 23.13 10.05 28.7 5.75 34.25 C3.85 36.19 1.97 37.63 -0.25 39.25 C-1.58 40.25 -2.92 41.25 -4.25 42.25 C-2.99 43.61 -2.99 43.61 -1.7 44.99 C-0.59 46.18 0.52 47.37 1.62 48.56 C2.46 49.45 2.46 49.45 3.31 50.37 C3.84 50.94 4.38 51.52 4.93 52.11 C5.42 52.64 5.91 53.17 6.42 53.72 C9.44 57.2 10.26 59.68 10.12 64.3 C9.75 66.25 9.75 66.25 7.69 68.81 C3.79 70.72 1.89 70.51 -2.25 69.25 C-3.98 67.65 -5.64 65.97 -7.25 64.25 C-7.72 63.75 -8.18 63.26 -8.66 62.75 C-10.12 61.2 -11.56 59.63 -13 58.06 C-13.49 57.53 -13.99 57 -14.5 56.45 C-18.13 52.49 -18.13 52.49 -19.25 50.25 C-19.32 51.57 -19.32 51.57 -19.4 52.92 C-19.47 54.08 -19.55 55.24 -19.62 56.44 C-19.69 57.59 -19.76 58.73 -19.84 59.92 C-20.23 63.1 -20.77 65.42 -22.25 68.25 C-25.76 70.59 -27.11 70.75 -31.25 70.25 C-33.91 68.63 -33.91 68.63 -36.25 66.25 C-36.87 63.28 -36.87 63.28 -36.87 59.78 C-36.87 58.47 -36.88 57.16 -36.89 55.81 C-36.88 54.38 -36.86 52.96 -36.84 51.53 C-36.84 50.06 -36.84 48.59 -36.84 47.13 C-36.84 44.06 -36.82 40.99 -36.79 37.91 C-36.75 33.98 -36.75 30.04 -36.76 26.11 C-36.76 23.08 -36.75 20.05 -36.73 17.02 C-36.72 15.57 -36.72 14.12 -36.72 12.67 C-36.72 10.64 -36.69 8.61 -36.67 6.59 C-36.66 5.43 -36.65 4.28 -36.64 3.09 C-36.25 0.25 -36.25 0.25 -34.83 -1.6 C-26.83 -7.41 -8.16 -4.39 0 0 Z M-20.25 12.25 C-20.25 16.87 -20.25 21.49 -20.25 26.25 C-13.6 26.85 -13.6 26.85 -7.62 24.62 C-5.84 21.54 -5.65 19.76 -6.25 16.25 C-8.51 13.99 -10.2 13.27 -13.25 12.25 C-15.56 12.25 -17.87 12.25 -20.25 12.25 Z " fill="#000000" transform="translate(324.25,55.75)"/>
<path d="M0 0 C3.2 2.87 3.85 4.97 4.44 9.19 C3.48 13.09 2.84 13.92 -0.56 16.19 C-5.3 16.83 -7.59 15.64 -11.56 13.15 C-15.28 11.36 -19.47 10.97 -23.56 11.19 C-24.55 11.85 -25.54 12.51 -26.56 13.19 C-26.56 14.51 -26.56 15.83 -26.56 17.19 C-25.96 17.43 -25.35 17.68 -24.73 17.93 C-21.96 19.07 -19.2 20.22 -16.44 21.38 C-15.49 21.76 -14.53 22.15 -13.55 22.55 C-5.72 25.84 0.09 29.07 3.68 37.08 C5.9 43.27 6 49.09 3.44 55.19 C0.09 61.2 -3.91 65.18 -10.56 67.19 C-21.89 69.48 -31.7 67.22 -41.32 61.06 C-44.29 58.88 -45.62 57.05 -47.12 53.69 C-47.56 50.19 -47.56 50.19 -46.38 47.38 C-44.56 45.19 -44.56 45.19 -41.56 43.19 C-36.65 43.19 -34.1 44.33 -30.12 47.19 C-25.75 50.29 -22.93 51.19 -17.56 51.19 C-14.65 50.68 -14.65 50.68 -12.56 49.19 C-11.31 47.41 -11.31 47.41 -11.56 45.19 C-14.8 39.75 -19.22 38.35 -24.88 36.25 C-32.17 33.54 -39.03 30.74 -42.98 23.64 C-44.61 16.78 -44.42 10.06 -40.82 3.9 C-30.41 -10.29 -13.62 -6.93 0 0 Z " fill="#000000" transform="translate(506.5625,245.8125)"/>
<path d="M0 0 C2.32 1.72 4.58 3.46 6.63 5.5 C6.92 8.43 7.12 10.65 6.63 13.5 C4.2 16.35 2.59 17.3 -1.06 18.06 C-5.2 17.36 -8.28 15.58 -11.97 13.63 C-15.02 12.2 -17.07 11.79 -20.37 12.5 C-22.75 14.38 -22.75 14.38 -24.37 16.5 C-22.16 18.98 -20.26 20.14 -17.17 21.3 C-15.94 21.78 -15.94 21.78 -14.7 22.27 C-13 22.91 -11.3 23.56 -9.59 24.19 C-2.45 27.02 2.03 30.97 6.57 37.12 C8.6 43.58 8.62 50.59 6.44 57 C2.21 62.83 -2.73 67.52 -9.91 69.04 C-21.74 70.47 -32.03 67.42 -41.43 60.12 C-43.89 56.79 -44.37 54.63 -44.37 50.5 C-43.03 47.55 -42.29 45.96 -39.37 44.5 C-36.21 43.97 -34.17 43.98 -31.45 45.77 C-30.09 46.85 -28.73 47.94 -27.38 49.03 C-23.25 52.05 -19.56 52.6 -14.56 52.19 C-11.49 51.66 -11.49 51.66 -9.37 50.5 C-8.95 46.44 -8.95 46.44 -10.6 42.92 C-12.62 41.3 -14.41 40.52 -16.83 39.63 C-17.69 39.3 -18.56 38.98 -19.45 38.64 C-21.26 37.97 -23.07 37.3 -24.88 36.64 C-30.95 34.32 -35.89 32.06 -39.71 26.57 C-41.55 20.79 -41.38 14.26 -39.31 8.6 C-35.83 2.32 -31.35 -1.96 -24.42 -4.11 C-16.06 -5.72 -7.24 -4.58 0 0 Z " fill="#000000" transform="translate(438.37109375,244.5)"/>
<path d="M0 0 C3.08 2.22 3.9 3.47 4.61 7.23 C4.66 8.39 4.7 9.55 4.75 10.75 C4.81 11.92 4.86 13.09 4.92 14.3 C4.95 15.19 4.97 16.08 5 17 C5.62 16.36 6.23 15.72 6.87 15.06 C21.54 0.08 21.54 0.08 27.88 -0.12 C32.47 1.53 32.47 1.53 34 4 C34.98 7.23 35.4 9.1 34 12.22 C31.16 16.17 27.7 19.28 24.12 22.56 C23.42 23.22 22.71 23.88 21.98 24.56 C18.43 27.85 14.84 31.04 11 34 C13.96 40.89 20.63 45.87 26.19 50.69 C26.83 51.25 27.48 51.81 28.14 52.39 C29.35 53.44 30.57 54.48 31.8 55.52 C34.64 58.08 35.96 59.87 37.06 63.56 C36.99 67.39 36.36 69.03 34 72 C30.98 73.51 29.38 73.5 26 73 C23.02 71.02 20.57 68.48 18 66 C16.27 64.4 14.54 62.81 12.8 61.22 C10.19 58.82 7.6 56.41 5 54 C4.98 55.43 4.98 55.43 4.96 56.89 C4.52 68.42 4.52 68.42 1.81 71.38 C-1.58 73.34 -3.15 73.8 -7 73 C-9.63 71.36 -10.58 70.66 -12 68 C-12.74 63.3 -12.63 58.61 -12.56 53.87 C-12.55 52.48 -12.55 51.08 -12.55 49.68 C-12.55 46.76 -12.52 43.85 -12.49 40.93 C-12.44 37.19 -12.43 33.45 -12.42 29.71 C-12.42 26.83 -12.4 23.95 -12.38 21.07 C-12.38 19.69 -12.37 18.32 -12.36 16.94 C-12.36 15.01 -12.33 13.08 -12.31 11.16 C-12.3 10.06 -12.29 8.97 -12.27 7.84 C-12 5.02 -11.55 3.35 -10 1 C-6.87 -0.56 -3.39 -0.7 0 0 Z " fill="#000000" transform="translate(361,53)"/>
<path d="M0 0 C1.15 -0 2.3 -0.01 3.48 -0.01 C4.75 -0.01 6.02 -0.01 7.33 -0.01 C8.67 -0.01 10.01 -0.02 11.36 -0.02 C15.01 -0.03 18.67 -0.03 22.32 -0.03 C25.37 -0.03 28.42 -0.04 31.47 -0.04 C38.66 -0.05 45.86 -0.05 53.05 -0.05 C60.47 -0.05 67.9 -0.06 75.32 -0.08 C81.69 -0.09 88.06 -0.1 94.43 -0.1 C98.24 -0.09 102.05 -0.1 105.85 -0.11 C109.43 -0.12 113.01 -0.12 116.59 -0.11 C118.53 -0.11 120.47 -0.12 122.42 -0.13 C124.15 -0.12 124.15 -0.12 125.92 -0.11 C126.92 -0.11 127.92 -0.11 128.96 -0.12 C131.71 0.15 133.31 0.58 135.59 2.13 C137.42 6.27 137.92 8.22 136.34 12.51 C134.59 15.13 134.59 15.13 132.59 16.13 C130.77 16.23 128.95 16.27 127.13 16.27 C125.97 16.28 124.82 16.29 123.62 16.29 C121.71 16.29 121.71 16.29 119.75 16.29 C118.4 16.3 117.05 16.3 115.69 16.31 C112.01 16.32 108.33 16.33 104.65 16.33 C102.35 16.34 100.05 16.34 97.75 16.35 C90.56 16.36 83.37 16.37 76.18 16.37 C67.87 16.38 59.56 16.39 51.26 16.42 C44.84 16.45 38.42 16.46 32.01 16.46 C28.17 16.46 24.34 16.46 20.5 16.48 C16.9 16.5 13.29 16.5 9.68 16.49 C7.73 16.49 5.77 16.5 3.82 16.52 C2.07 16.51 2.07 16.51 0.29 16.5 C-0.72 16.5 -1.73 16.5 -2.77 16.51 C-5.86 16.07 -7.21 15.32 -9.41 13.13 C-10.52 9.16 -10.83 7.04 -9.1 3.26 C-6.33 -0.23 -4.28 0.01 0 0 Z " fill="#000000" transform="translate(331.4146423339844,174.8662872314453)"/>
<path d="M0 0 C1.73 -0.01 1.73 -0.01 3.49 -0.02 C4.75 -0.02 6.02 -0.03 7.32 -0.03 C8.66 -0.04 10.01 -0.04 11.35 -0.05 C15.76 -0.07 20.17 -0.08 24.59 -0.09 C26.11 -0.1 27.62 -0.1 29.14 -0.1 C36.28 -0.12 43.41 -0.14 50.54 -0.15 C58.78 -0.15 67.02 -0.18 75.25 -0.22 C81.62 -0.25 87.99 -0.27 94.35 -0.27 C98.16 -0.27 101.96 -0.28 105.76 -0.31 C109.34 -0.33 112.91 -0.33 116.49 -0.32 C118.43 -0.32 120.37 -0.34 122.31 -0.36 C124.04 -0.35 124.04 -0.35 125.8 -0.34 C126.81 -0.34 127.81 -0.35 128.84 -0.35 C132.2 0.29 133.37 1.5 135.47 4.15 C136.64 7.83 136.8 9.43 135.15 12.96 C133.47 15.15 133.47 15.15 131.47 16.15 C129.65 16.25 127.83 16.29 126.01 16.29 C124.85 16.3 123.7 16.31 122.5 16.32 C121.23 16.32 119.95 16.32 118.63 16.32 C117.28 16.33 115.93 16.34 114.57 16.34 C110.89 16.36 107.21 16.37 103.53 16.38 C101.23 16.39 98.93 16.39 96.63 16.4 C89.44 16.42 82.25 16.43 75.06 16.44 C66.75 16.45 58.44 16.48 50.14 16.52 C43.72 16.55 37.3 16.56 30.89 16.56 C27.05 16.57 23.22 16.58 19.38 16.6 C15.78 16.62 12.17 16.63 8.56 16.62 C6.61 16.62 4.65 16.64 2.7 16.66 C0.95 16.65 0.95 16.65 -0.83 16.63 C-2.35 16.64 -2.35 16.64 -3.89 16.64 C-7.26 16.01 -8.42 14.78 -10.53 12.15 C-11.9 8.69 -11.64 7.41 -10.28 3.9 C-7.58 -0.36 -4.7 0.02 0 0 Z " fill="#000000" transform="translate(54.53489685058594,174.8528289794922)"/>
<path d="M0 0 C0.7 -0 1.39 -0 2.11 -0.01 C3.57 -0.01 5.04 0.01 6.5 0.03 C8.74 0.07 10.98 0.05 13.22 0.03 C14.65 0.04 16.07 0.05 17.5 0.06 C19.44 0.08 19.44 0.08 21.42 0.1 C24.75 0.63 24.75 0.63 27.17 2.45 C29.48 5.64 29.3 7.79 28.75 11.63 C26.53 14.54 25.23 15.47 21.75 16.63 C20.41 16.71 19.08 16.74 17.74 16.73 C16.6 16.72 16.6 16.72 15.44 16.72 C14.66 16.71 13.87 16.7 13.06 16.69 C12.27 16.69 11.47 16.68 10.65 16.68 C8.68 16.67 6.72 16.65 4.75 16.63 C4.75 20.59 4.75 24.55 4.75 28.63 C6.5 28.56 6.5 28.56 8.29 28.49 C9.84 28.45 11.39 28.41 12.94 28.38 C13.71 28.35 14.48 28.31 15.27 28.28 C19.22 28.21 21.28 28.35 24.77 30.39 C26.85 32.74 27.41 33.55 27.31 36.63 C27.31 37.62 27.31 37.62 27.32 38.63 C26.44 41.72 25.4 42.79 22.75 44.63 C19.65 45.11 16.63 45.01 13.5 44.88 C12.24 44.85 12.24 44.85 10.95 44.82 C8.88 44.78 6.82 44.71 4.75 44.63 C4.75 48.92 4.75 53.21 4.75 57.63 C6.85 57.56 6.85 57.56 8.98 57.49 C10.82 57.45 12.66 57.41 14.5 57.38 C15.42 57.35 16.34 57.31 17.29 57.28 C24.1 57.18 24.1 57.18 27.36 59.43 C29.41 62.67 29.29 64.88 28.75 68.63 C26.53 71.54 25.23 72.47 21.75 73.63 C17.46 73.89 13.17 73.86 8.88 73.88 C7.1 73.91 7.1 73.91 5.29 73.94 C4.14 73.95 3 73.95 1.82 73.96 C0.25 73.97 0.25 73.97 -1.34 73.99 C-4.71 73.57 -6.54 72.64 -9.25 70.63 C-11.57 67.16 -11.51 65.78 -11.54 61.68 C-11.55 60.45 -11.57 59.23 -11.58 57.96 C-11.58 56.63 -11.58 55.29 -11.59 53.95 C-11.59 52.58 -11.6 51.2 -11.61 49.83 C-11.62 46.95 -11.62 44.07 -11.62 41.19 C-11.62 37.5 -11.65 33.82 -11.68 30.14 C-11.7 27.3 -11.71 24.46 -11.71 21.62 C-11.71 20.26 -11.72 18.91 -11.73 17.55 C-11.75 15.65 -11.75 13.74 -11.74 11.84 C-11.74 10.76 -11.74 9.68 -11.74 8.56 C-10.54 1.44 -6.68 -0 0 0 Z " fill="#000000" transform="translate(353.25,240.37109375)"/>
<path d="M0 0 C0.98 -0.01 1.95 -0.01 2.96 -0.02 C3.97 -0 4.98 0.02 6.02 0.03 C7.01 0.02 8 0 9.02 -0.02 C16.93 0.03 23.84 1.5 30.23 6.36 C35.58 12.85 38.23 18.57 37.77 27.09 C36.77 34.63 34.06 40.51 28.01 45.28 C20.84 49.4 12.89 49.71 4.83 49.53 C4.86 50.46 4.86 50.46 4.88 51.41 C4.94 54.22 4.98 57.03 5.02 59.84 C5.06 61.31 5.06 61.31 5.1 62.8 C5.11 64.21 5.11 64.21 5.12 65.64 C5.15 66.94 5.15 66.94 5.17 68.26 C4.76 71.03 4.05 71.87 1.83 73.53 C-1.86 74.65 -3.48 74.87 -6.98 73.16 C-9.17 71.53 -9.17 71.53 -10.17 70.53 C-10.29 68.5 -10.34 66.46 -10.36 64.42 C-10.38 63.11 -10.39 61.81 -10.41 60.46 C-10.42 59.02 -10.43 57.58 -10.44 56.14 C-10.45 55.41 -10.45 54.69 -10.46 53.95 C-10.48 50.12 -10.5 46.3 -10.52 42.48 C-10.53 38.53 -10.58 34.58 -10.63 30.62 C-10.66 27.59 -10.68 24.55 -10.68 21.52 C-10.69 20.06 -10.7 18.6 -10.73 17.15 C-10.76 15.11 -10.76 13.07 -10.75 11.03 C-10.76 9.87 -10.77 8.71 -10.78 7.51 C-10.17 4.53 -10.17 4.53 -7.79 2.16 C-4.9 0.36 -3.37 0.02 0 0 Z M4.83 16.53 C4.83 22.14 4.83 27.75 4.83 33.53 C10.71 33.8 14.8 33.97 19.83 30.53 C21.82 28.02 21.84 26.75 21.77 23.53 C21.01 20.46 21.01 20.46 18.96 18.16 C14.2 15.68 10.15 16.27 4.83 16.53 Z " fill="#000000" transform="translate(10.16796875,239.46875)"/>
<path d="M0 0 C0.77 -0.01 1.55 -0.02 2.34 -0.02 C5.01 0.47 5.86 1.25 7.5 3.38 C8.56 6.56 8.65 8.88 8.68 12.24 C8.69 13.44 8.7 14.65 8.72 15.89 C8.72 17.19 8.73 18.49 8.74 19.84 C8.74 20.5 8.75 21.16 8.75 21.85 C8.77 25.36 8.79 28.88 8.8 32.39 C8.81 36.01 8.84 39.64 8.88 43.26 C8.91 46.05 8.91 48.84 8.92 51.63 C8.93 53.62 8.95 55.6 8.98 57.59 C8.98 58.8 8.97 60.01 8.97 61.26 C8.98 62.85 8.98 62.85 8.99 64.48 C8.37 68.13 7.1 69.78 4.5 72.38 C1.06 73.44 1.06 73.44 -2.5 73.38 C-5.18 71.78 -5.18 71.78 -7.5 69.38 C-8.12 66.41 -8.12 66.41 -8.12 62.91 C-8.12 61.6 -8.13 60.29 -8.14 58.94 C-8.13 57.51 -8.11 56.08 -8.09 54.65 C-8.09 53.19 -8.09 51.72 -8.09 50.25 C-8.09 47.18 -8.07 44.11 -8.04 41.04 C-8 37.1 -8 33.17 -8.01 29.23 C-8.01 26.2 -8 23.18 -7.98 20.15 C-7.97 18.7 -7.97 17.24 -7.97 15.79 C-7.97 13.77 -7.94 11.74 -7.92 9.71 C-7.91 8.56 -7.9 7.4 -7.89 6.21 C-7.5 3.38 -7.5 3.38 -6.11 1.5 C-3.98 0.01 -2.58 -0.03 0 0 Z " fill="#000000" transform="translate(219.5,146.625)"/>
</svg>
